<svg width="49" height="52" viewBox="0 0 49 52" fill="none" xmlns="http://www.w3.org/2000/svg">
<path fill-rule="evenodd" clip-rule="evenodd" d="M28.459 0C29.299 0 30.1388 0 30.9788 0C34.6688 1.05721 36.3734 3.53518 36.0925 7.43391C35.3301 10.8995 33.1808 12.7332 29.6448 12.935C26.7419 12.8247 24.6916 11.437 23.4935 8.77201C22.4709 4.27839 24.1259 1.35439 28.459 0Z" fill="#373737"/>
<path fill-rule="evenodd" clip-rule="evenodd" d="M36.6115 15.1651C39.774 15.1403 42.9361 15.1651 46.0978 15.2395C46.3258 15.5267 46.4988 15.8489 46.6166 16.2059C46.9756 17.1237 47.2473 18.0653 47.4318 19.0308C43.0345 19.0308 38.6372 19.0308 34.2399 19.0308C34.8741 18.022 35.5411 17.0307 36.2409 16.0572C36.4072 15.7737 36.5307 15.4763 36.6115 15.1651Z" fill="#01C601"/>
<path fill-rule="evenodd" clip-rule="evenodd" d="M36.6115 15.1651C36.5308 15.4763 36.4073 15.7737 36.241 16.0572C35.5412 17.0307 34.8742 18.022 34.24 19.0308C32.4112 19.0059 30.5831 19.0308 28.7556 19.1051C27.0611 21.236 25.3813 23.3918 23.716 25.5726C24.9968 25.721 26.2815 25.7705 27.5699 25.7213C27.3149 26.2017 26.9691 26.6229 26.5323 26.985C25.3684 27.7836 24.2815 28.6508 23.2713 29.5869C22.3807 29.5622 21.4913 29.5871 20.6033 29.6613C19.814 30.7777 18.974 31.8433 18.0835 32.8578C17.9722 32.6983 17.8239 32.6735 17.6388 32.7835C14.4976 34.5858 11.1873 35.9982 7.70776 37.0208C13.2341 29.7304 18.8172 22.4698 24.4571 15.2395C28.5083 15.1651 32.5598 15.1403 36.6115 15.1651Z" fill="#8FFC86"/>
<path fill-rule="evenodd" clip-rule="evenodd" d="M27.5698 25.7213C34.4871 25.6965 41.4043 25.7213 48.3212 25.7956C48.5114 26.2512 48.6102 26.7467 48.6176 27.2824C48.5864 28.0529 48.5369 28.8209 48.4694 29.5869C40.07 29.5869 31.6707 29.5869 23.2712 29.5869C24.2814 28.6508 25.3683 27.7836 26.5322 26.9851C26.969 26.6229 27.3148 26.2017 27.5698 25.7213Z" fill="#00C400"/>
<path fill-rule="evenodd" clip-rule="evenodd" d="M18.0834 32.8578C13.6104 38.7064 9.11427 44.5297 4.59496 50.3275C2.54192 51.4862 1.01027 51.0153 0 48.9151C0 48.4195 0 47.9238 0 47.4283C0.143638 47.1067 0.267158 46.7598 0.370561 46.3876C2.81769 43.2603 5.26339 40.138 7.70767 37.0208C11.1872 35.9982 14.4975 34.5858 17.6387 32.7835C17.8239 32.6735 17.9721 32.6983 18.0834 32.8578Z" fill="#01C601"/>
<path opacity="0.997" fill-rule="evenodd" clip-rule="evenodd" d="M47.432 34.642C46.5371 34.5931 45.6478 34.6426 44.7639 34.7907C40.9602 35.5253 37.4028 36.8882 34.0918 38.8793C33.8007 39.0951 33.6031 39.3676 33.4989 39.6971C30.1881 39.7219 26.8778 39.6971 23.5678 39.6227C21.6913 39.1405 20.9256 37.9263 21.2703 35.9801C21.6221 35.1219 22.2397 34.552 23.1231 34.2703C31.226 34.196 39.3288 34.1711 47.432 34.196C47.432 34.3446 47.432 34.4933 47.432 34.642Z" fill="#777777"/>
<path opacity="0.979" fill-rule="evenodd" clip-rule="evenodd" d="M47.4319 34.642C46.3309 41.9953 42.6253 47.6203 36.315 51.517C33.8389 51.7587 32.6778 50.6436 32.8318 48.1717C33.0053 47.8235 33.1783 47.4765 33.3505 47.131C36.2675 45.2709 38.5403 42.8177 40.1689 39.7714C37.9461 39.6971 35.7227 39.6722 33.4988 39.6971C33.603 39.3676 33.8006 39.0951 34.0917 38.8793C37.4027 36.8882 40.9601 35.5253 44.7638 34.7907C45.6477 34.6426 46.537 34.5931 47.4319 34.642Z" fill="#383838"/>
</svg>
