<svg width="25" height="24" viewBox="0 0 25 24" fill="none" xmlns="http://www.w3.org/2000/svg">
<path d="M6.28127 2.08594C6.18752 2.13672 6.05471 2.24219 5.99221 2.32422C5.87893 2.46875 5.87112 2.49609 5.8594 2.87891L5.84377 3.28125L5.58596 3.29688C5.44143 3.30469 5.26174 3.34375 5.18362 3.38281C4.75393 3.58984 4.54299 4.08203 4.69533 4.51172C4.83205 4.88672 5.1133 5.08594 5.55862 5.12109L5.83205 5.14453L5.84377 5.77344L5.85158 6.40625L5.56643 6.42188C5.32815 6.43359 5.24221 6.45703 5.08596 6.55078C4.59377 6.85547 4.50002 7.54297 4.89846 7.95312C5.09377 8.15625 5.24612 8.22266 5.57033 8.24219L5.85158 8.26172V8.875V9.49219L5.58987 9.51953C5.14065 9.56641 4.89065 9.72266 4.7344 10.0664C4.62112 10.3086 4.61721 10.5547 4.72268 10.7891C4.88674 11.1484 5.15237 11.3281 5.58205 11.3633L5.85158 11.3867V12V12.6133L5.58205 12.6367C5.15237 12.6719 4.88674 12.8516 4.72268 13.2109C4.52346 13.6523 4.75002 14.2148 5.20705 14.4062C5.27346 14.4297 5.44143 14.4648 5.58987 14.4805L5.85158 14.5078V15.125V15.7383L5.57033 15.7578C5.24612 15.7773 5.09377 15.8438 4.89846 16.0469C4.50002 16.457 4.59377 17.1445 5.08596 17.4492C5.24221 17.543 5.32815 17.5664 5.56643 17.5781L5.85158 17.5938L5.84377 18.2266L5.83205 18.8555L5.55862 18.8789C5.1133 18.9141 4.83205 19.1133 4.69533 19.4883C4.54299 19.918 4.75393 20.4102 5.18362 20.6172C5.26174 20.6562 5.44143 20.6953 5.58596 20.7031L5.84377 20.7188L5.8594 21.1211C5.87112 21.5039 5.87893 21.5312 5.99221 21.6758C6.05471 21.7578 6.18752 21.8633 6.28127 21.9102L6.45315 22H13.6289H20.8008L20.9727 21.9102C21.0664 21.8594 21.1992 21.7422 21.2617 21.6523L21.3789 21.4844V12V2.51562L21.2617 2.34766C21.1992 2.25781 21.0664 2.14062 20.9727 2.08984L20.8008 2H13.6289H6.45315L6.28127 2.08594ZM20.75 2.67188C20.8047 2.75 20.8125 3.69922 20.8125 12C20.8125 20.3008 20.8047 21.25 20.75 21.3281L20.6914 21.4141H13.6406C8.85549 21.4141 6.56252 21.4023 6.51174 21.375C6.43752 21.332 6.43752 21.1875 6.43752 12C6.43752 3.15234 6.44143 2.66406 6.50783 2.62891C6.5508 2.60156 8.91018 2.58984 13.6328 2.58594H20.6914L20.75 2.67188ZM5.85158 4.20703V4.53906H5.66018C5.34768 4.53906 5.16018 4.31641 5.27346 4.07812C5.33987 3.94531 5.47658 3.875 5.68752 3.875H5.85158V4.20703ZM5.85158 7.33594V7.67188L5.63283 7.65625C5.3633 7.63281 5.25002 7.53516 5.25002 7.32812C5.25002 7.12109 5.40237 7 5.66018 7H5.85158V7.33594ZM5.84377 10.4453C5.83205 10.7578 5.82815 10.7695 5.7344 10.7812C5.43362 10.8242 5.17971 10.5938 5.26174 10.3516C5.32033 10.1797 5.41408 10.1289 5.64846 10.125H5.85549L5.84377 10.4453ZM5.84377 13.5508L5.85549 13.875H5.64846C5.41799 13.8711 5.32815 13.8242 5.26565 13.6602C5.1758 13.4219 5.39065 13.1992 5.69533 13.2227L5.83205 13.2305L5.84377 13.5508ZM5.85158 16.668V17H5.66018C5.34768 17 5.16018 16.7773 5.27346 16.5391C5.33987 16.4062 5.47658 16.3359 5.68752 16.3359H5.85158V16.668ZM5.85158 19.7969V20.1328L5.63283 20.1172C5.3633 20.0938 5.25002 19.9961 5.25002 19.7891C5.25002 19.582 5.40237 19.4609 5.66018 19.4609H5.85158V19.7969Z" fill="black"/>
<path d="M13.0039 4.99609C12.9336 5.03125 12.832 5.12891 12.7773 5.21094C12.6719 5.36719 12.6523 5.58203 12.707 5.97656L12.7305 6.16016L12.4062 6.25C11.2695 6.55859 10.2305 7.41016 9.66797 8.48047C9.44922 8.89844 9.27344 9.44922 9.21094 9.91406L9.16406 10.2695L8.9375 10.293C8.50781 10.332 8.42969 10.4492 8.42969 11.082V11.5391L8.5625 11.6719L8.69531 11.8047H13.582C17.1875 11.8047 18.4922 11.793 18.5625 11.7578C18.7461 11.6758 18.7969 11.5469 18.8125 11.1211C18.8359 10.5078 18.7266 10.332 18.2812 10.2852C18.0664 10.2617 18.0586 10.2578 18.0508 10.1445C17.9492 8.88672 17.2578 7.67188 16.2148 6.92188C15.8086 6.62891 15.2617 6.36328 14.8359 6.25L14.5273 6.16797L14.5352 5.74609C14.543 5.28125 14.5117 5.19531 14.25 5.01562C14.1328 4.9375 14.0742 4.92969 13.6289 4.92969C13.25 4.92969 13.1055 4.94531 13.0039 4.99609ZM13.9531 5.77734C13.9375 5.92578 13.9219 6.05078 13.9141 6.05859C13.9062 6.06641 13.7695 6.07422 13.6094 6.07812L13.3203 6.08203L13.2969 5.94531C13.2852 5.87109 13.2734 5.74219 13.2734 5.66016V5.51562H13.625H13.9805L13.9531 5.77734ZM14.2891 6.73047C14.8164 6.8125 15.4492 7.08984 15.9141 7.43359C16.7344 8.03906 17.3398 9.07031 17.4375 10.0352L17.4648 10.2812H14.5156C11.5898 10.2812 11.5625 10.2812 11.4609 10.3633C11.3437 10.4531 11.3242 10.6445 11.4141 10.7734C11.4687 10.8438 11.5625 10.8477 14.8437 10.8672L18.2148 10.8867L18.2266 11.0508L18.2383 11.2188H13.6289H9.01562V11.043V10.8672H9.69922C10.332 10.8672 10.3906 10.8594 10.4609 10.7891C10.5781 10.6719 10.5664 10.4648 10.4375 10.3633C10.3516 10.2969 10.2773 10.2812 10.043 10.2812H9.75391L9.78125 10.0742C9.99219 8.42578 11.2109 7.10156 12.8477 6.74609C13.1484 6.68359 13.9375 6.67188 14.2891 6.73047Z" fill="black"/>
<path d="M8.59779 13.9922C8.42591 14.0625 8.37513 14.3281 8.50795 14.4609C8.58607 14.5391 8.63685 14.5391 13.6212 14.5391H18.6603L18.7384 14.4375C18.7853 14.3789 18.8204 14.3086 18.8204 14.2812C18.8204 14.1797 18.7306 14.0391 18.6369 13.9961C18.5197 13.9414 8.7306 13.9375 8.59779 13.9922Z" fill="black"/>
<path d="M8.84375 15.3047C8.78906 15.3555 8.78125 15.5234 8.78125 16.5273C8.78125 17.3789 8.79297 17.6992 8.82812 17.7344C8.89453 17.8008 9.11719 17.793 9.1875 17.7187C9.23828 17.668 9.25 17.5391 9.25 16.9102V16.1602L9.45703 16.5273C9.77344 17.0977 9.81641 17.0977 10.1367 16.5273L10.3438 16.1602V16.8945C10.3438 17.3242 10.3594 17.6602 10.3828 17.707C10.4297 17.793 10.6875 17.8125 10.7656 17.7344C10.8008 17.6992 10.8125 17.3789 10.8125 16.5273C10.8125 15.2344 10.8125 15.2422 10.5547 15.2422C10.375 15.2422 10.293 15.332 10.0312 15.8164C9.91406 16.0391 9.80469 16.2187 9.79297 16.2187C9.78125 16.2187 9.66797 16.0312 9.54297 15.8008C9.41406 15.5703 9.28125 15.3516 9.24219 15.3125C9.15625 15.2266 8.92578 15.2187 8.84375 15.3047Z" fill="black"/>
<path d="M11.6836 15.2695C11.6445 15.2852 11.6328 15.5703 11.6328 16.5117C11.6328 17.5898 11.6406 17.7383 11.6953 17.7578C11.7305 17.7695 12.0703 17.7812 12.457 17.7812H13.1562L13.1992 17.6797C13.2266 17.6016 13.2227 17.5547 13.1758 17.4844C13.1172 17.3945 13.0977 17.3906 12.6094 17.3906H12.1016V17.0391V16.6875H12.3945C12.668 16.6875 12.6914 16.6797 12.7305 16.5938C12.7617 16.5273 12.7617 16.4805 12.7305 16.418C12.6914 16.3438 12.6523 16.3359 12.3945 16.3359H12.1016V15.9844V15.6328H12.6094C13.0977 15.6328 13.1172 15.6289 13.1758 15.5391C13.2227 15.4688 13.2266 15.4219 13.1992 15.3438L13.1562 15.2422L12.4453 15.2461C12.0508 15.2461 11.707 15.2578 11.6836 15.2695Z" fill="black"/>
<path d="M13.8945 15.3477C13.8711 15.4102 13.8593 15.8789 13.8672 16.5781C13.8789 17.8164 13.8711 17.7812 14.1172 17.7812C14.1836 17.7812 14.2578 17.7578 14.2851 17.7305C14.3086 17.6953 14.332 17.4102 14.3359 16.9687L14.3476 16.2617L14.7148 16.9531C14.9179 17.332 15.1093 17.6758 15.1406 17.7109C15.2109 17.793 15.4609 17.8047 15.5312 17.7344C15.5976 17.668 15.5976 15.3555 15.5312 15.2891C15.4531 15.2109 15.1953 15.2305 15.1484 15.3164C15.125 15.3594 15.1093 15.6797 15.1093 16.0703V16.7461L14.7539 16.0625C14.5586 15.6875 14.375 15.3477 14.3398 15.3125C14.2968 15.2656 14.2187 15.2422 14.1054 15.2422C13.957 15.2422 13.9297 15.2539 13.8945 15.3477Z" fill="black"/>
<path d="M16.4492 15.2695C16.4102 15.2813 16.3984 15.5195 16.3984 16.2695C16.3984 17.1445 16.4102 17.2734 16.4727 17.4141C16.6133 17.7266 17.0117 17.8789 17.4453 17.7891C17.7812 17.7188 17.9727 17.5469 18.0391 17.25C18.0977 17.0117 18.0898 15.3477 18.0312 15.2891C18.0039 15.2617 17.9219 15.2422 17.8437 15.2422C17.7656 15.2422 17.6836 15.2617 17.6562 15.2891C17.6211 15.3242 17.6094 15.5898 17.6094 16.2461C17.6094 17.2617 17.5977 17.3203 17.3555 17.3867C17.1836 17.4336 17.0469 17.4023 16.9375 17.2852C16.8477 17.1914 16.8477 17.1719 16.8359 16.2461C16.8242 15.582 16.8086 15.293 16.7773 15.2734C16.7266 15.2383 16.5234 15.2383 16.4492 15.2695Z" fill="black"/>
<path d="M8.6252 18.5117C8.41816 18.5898 8.36348 18.8359 8.51973 18.9844L8.60957 19.0703H12.0783C14.4455 19.0703 15.5705 19.0586 15.6213 19.0273C15.8088 18.9297 15.7932 18.6172 15.5939 18.5273C15.5236 18.4961 14.5432 18.4844 12.09 18.4883C10.215 18.4883 8.65645 18.5 8.6252 18.5117Z" fill="black"/>
<path d="M16.7225 18.5234C16.5468 18.5938 16.5077 18.8047 16.6366 18.9688L16.7147 19.0703H17.6835C18.5585 19.0703 18.6561 19.0625 18.7108 19C18.8554 18.8398 18.8202 18.6094 18.6366 18.5273C18.5233 18.4766 16.8515 18.4727 16.7225 18.5234Z" fill="black"/>
</svg>
