<svg width="20" height="16" viewBox="0 0 20 16" fill="none" xmlns="http://www.w3.org/2000/svg">
<g clip-path="url(#clip0_632_3511)">
<path d="M19.5048 7.45516H17.9419C18.5212 6.6633 18.8421 5.7204 18.8421 4.72282C18.8421 3.46151 18.3378 2.27556 17.4293 1.383C15.5538 -0.448443 12.5072 -0.448443 10.6359 1.383C10.3775 1.6344 10.1692 1.91513 9.97744 2.21688C9.7899 1.92347 9.57735 1.64273 9.31478 1.383C7.43932 -0.448443 4.39275 -0.448443 2.52146 1.383C1.60873 2.27556 1.10861 3.46151 1.10861 4.72282C1.10861 5.72023 1.42952 6.65879 2.00883 7.45516H0.500129C0.220894 7.45516 7.09639e-06 7.68138 7.1112e-06 7.95795C-0.000344293 8.02385 0.0123312 8.08918 0.0373052 8.15018C0.0622793 8.21117 0.0990597 8.26663 0.145533 8.31337C0.192007 8.36011 0.247257 8.3972 0.30811 8.42252C0.368963 8.44784 0.434219 8.46088 0.500129 8.4609H2.92155L9.61486 14.9983C9.64403 15.0277 9.79407 15.1492 9.96911 15.1534C10.115 15.1534 10.2859 15.0445 10.3317 14.9983L17.0167 8.4609H19.5048C19.784 8.4609 20.0049 8.23451 20.0049 7.95795C20.0049 7.68138 19.7798 7.45516 19.5048 7.45516ZM3.21329 2.11218C4.70116 0.657994 7.12258 0.657994 8.61044 2.11218C8.92719 2.42226 9.17308 2.76167 9.35646 3.15144C9.41064 3.26463 9.64403 3.83027 9.96911 3.83027C10.2942 3.83027 10.5359 3.25196 10.5818 3.15144C10.5859 3.1431 10.5901 3.13877 10.5901 3.13043C10.7818 2.74484 11.0194 2.40959 11.3278 2.11218C12.8156 0.657994 15.2371 0.657994 16.7249 2.11218C17.4418 2.81202 17.8377 3.74225 17.8377 4.72716C17.8377 5.71606 17.4418 6.64229 16.7249 7.34213L16.6082 7.45532H13.8201L12.8365 4.14035C12.8073 4.04221 12.7491 3.95524 12.6695 3.89091C12.5899 3.82658 12.4926 3.78794 12.3905 3.78009C12.2889 3.7724 12.1873 3.79597 12.0994 3.84763C12.0115 3.8993 11.9415 3.97659 11.8987 4.06916L9.87742 8.41489L8.69797 5.5947C8.66212 5.50871 8.60291 5.43448 8.52704 5.38041C8.45117 5.32634 8.36168 5.29461 8.26869 5.28879C8.08115 5.27212 7.89777 5.37265 7.80191 5.53602L6.67247 7.45132H3.32999L3.21329 7.33796C2.49645 6.63829 2.10052 5.7079 2.10052 4.72315C2.10469 3.73825 2.49645 2.81219 3.21329 2.11235V2.11218ZM9.97328 13.9467L4.36357 8.46524H6.84335C7.04756 8.46524 7.25595 8.46107 7.39348 8.25985L8.16867 6.99004L9.39814 10.0158C9.47316 10.2002 9.61902 10.4852 9.85241 10.4852H9.86075C10.1233 10.4852 10.2317 10.2128 10.315 10.0368L12.2572 5.69939L12.9698 8.10498C13.0001 8.20873 13.0632 8.29989 13.1496 8.36483C13.236 8.42977 13.341 8.46499 13.4491 8.46524H15.5788L9.97328 13.9466V13.9467Z" fill="#707070"/>
</g>
<defs>
<clipPath id="clip0_632_3511">
<rect width="20" height="15.1704" fill="white"/>
</clipPath>
</defs>
</svg>
